<svg xmlns="http://www.w3.org/2000/svg" width="1024" height="1024" viewBox="0 0 1024 1024">
  <defs>
    <radialGradient id="bg" cx="52%" cy="42%" r="62%">
      <stop offset="0%" stop-color="#30292f"/>
      <stop offset="100%" stop-color="#070607"/>
    </radialGradient>
    <linearGradient id="skin" x1="0" y1="0" x2="1" y2="1">
      <stop offset="0%" stop-color="#d5c7b7"/>
      <stop offset="100%" stop-color="#8f7868"/>
    </linearGradient>
  </defs>
  <rect width="1024" height="1024" fill="url(#bg)"/>
  <path d="M270 286 C350 174 650 176 740 292 C812 384 792 642 632 798 C562 868 456 870 384 804 C228 656 198 390 270 286 Z" fill="url(#skin)"/>
  <ellipse cx="402" cy="430" rx="74" ry="62" fill="#111"/>
  <ellipse cx="618" cy="432" rx="78" ry="66" fill="#111"/>
  <path d="M322 650 C434 570 594 572 706 652" stroke="#1a1412" stroke-width="30" fill="none" stroke-linecap="round"/>
  <line x1="370" y1="616" x2="350" y2="678" stroke="#f0e6dd" stroke-width="6"/>
  <line x1="430" y1="604" x2="410" y2="676" stroke="#f0e6dd" stroke-width="6"/>
  <line x1="496" y1="600" x2="496" y2="682" stroke="#f0e6dd" stroke-width="6"/>
  <line x1="564" y1="604" x2="582" y2="676" stroke="#f0e6dd" stroke-width="6"/>
  <line x1="630" y1="618" x2="652" y2="680" stroke="#f0e6dd" stroke-width="6"/>
</svg>
