<svg xmlns="http://www.w3.org/2000/svg" width="1024" height="1024" viewBox="0 0 1024 1024">
  <defs>
    <radialGradient id="void" cx="50%" cy="50%" r="54%">
      <stop offset="0%" stop-color="#2e3135"/>
      <stop offset="80%" stop-color="#08090b"/>
      <stop offset="100%" stop-color="#010101"/>
    </radialGradient>
    <linearGradient id="flesh" x1="0" y1="0" x2="0" y2="1">
      <stop offset="0%" stop-color="#c7c0b8"/>
      <stop offset="100%" stop-color="#786f68"/>
    </linearGradient>
  </defs>
  <rect width="1024" height="1024" fill="url(#void)"/>
  <ellipse cx="512" cy="506" rx="288" ry="316" fill="url(#flesh)"/>
  <ellipse cx="408" cy="448" rx="54" ry="48" fill="#0a0a0a"/>
  <ellipse cx="622" cy="456" rx="84" ry="78" fill="#0a0a0a"/>
  <path d="M368 664 C422 626 602 626 656 668 C622 734 578 772 512 772 C442 772 396 732 368 664 Z" fill="#171311"/>
  <path d="M356 372 C430 334 470 332 532 344" stroke="#5d5551" stroke-width="12" fill="none"/>
  <path d="M566 350 C620 332 674 338 706 372" stroke="#5d5551" stroke-width="12" fill="none"/>
  <path d="M322 534 C334 494 352 474 376 472" stroke="#5a524f" stroke-width="10" opacity="0.6"/>
  <path d="M700 528 C686 486 668 468 640 464" stroke="#5a524f" stroke-width="10" opacity="0.6"/>
</svg>
