<svg xmlns="http://www.w3.org/2000/svg" width="1024" height="1024" viewBox="0 0 1024 1024">
  <defs>
    <linearGradient id="bg" x1="0" y1="0" x2="0" y2="1">
      <stop offset="0%" stop-color="#111722"/>
      <stop offset="100%" stop-color="#030407"/>
    </linearGradient>
    <radialGradient id="face" cx="50%" cy="36%" r="62%">
      <stop offset="0%" stop-color="#b0b7c7"/>
      <stop offset="100%" stop-color="#4b5160"/>
    </radialGradient>
  </defs>
  <rect width="1024" height="1024" fill="url(#bg)"/>
  <ellipse cx="512" cy="510" rx="300" ry="338" fill="url(#face)"/>
  <ellipse cx="392" cy="430" rx="96" ry="84" fill="#050506"/>
  <ellipse cx="632" cy="430" rx="96" ry="84" fill="#050506"/>
  <path d="M286 640 C392 560 624 560 738 642 C676 792 592 856 512 856 C430 856 344 792 286 640 Z" fill="#07080b"/>
  <polygon points="408,652 438,716 468,652" fill="#d7e7ff"/>
  <polygon points="470,656 500,726 530,656" fill="#d7e7ff"/>
  <polygon points="532,654 562,724 592,654" fill="#d7e7ff"/>
  <path d="M350 330 C420 286 486 274 512 274 C554 274 622 294 680 336" stroke="#242a37" stroke-width="18" fill="none"/>
</svg>
