<svg xmlns="http://www.w3.org/2000/svg" width="1900" height="1100" viewBox="0 0 1900 1100">
  <defs>
    <style>
      .bg { fill: #0b1115; }
      .grid { stroke: #162028; stroke-width: 1; }
      .room { fill: #15212b; stroke: #355064; stroke-width: 2; }
      .room-bedroom { fill: #222325; stroke: #5b6168; stroke-width: 2; }
      .wall { fill: #f2c86a; }
      .label-room { fill: #d7e3eb; font: 700 28px ui-sans-serif, system-ui, -apple-system, Segoe UI, Roboto, Arial, sans-serif; }
      .label-wall { fill: #ffd975; font: 700 16px ui-sans-serif, system-ui, -apple-system, Segoe UI, Roboto, Arial, sans-serif; }
      .title { fill: #f3f7fa; font: 700 34px ui-sans-serif, system-ui, -apple-system, Segoe UI, Roboto, Arial, sans-serif; }
      .sub { fill: #a9c0cf; font: 500 18px ui-sans-serif, system-ui, -apple-system, Segoe UI, Roboto, Arial, sans-serif; }
      .legend { fill: #9eb4c3; font: 500 16px ui-sans-serif, system-ui, -apple-system, Segoe UI, Roboto, Arial, sans-serif; }
      .dir { fill: #7fd3ff; font: 700 20px ui-sans-serif, system-ui, -apple-system, Segoe UI, Roboto, Arial, sans-serif; }
    </style>
  </defs>

  <rect class="bg" x="0" y="0" width="1900" height="1100" />

  <g opacity="0.55">
    <line class="grid" x1="80" y1="1020" x2="1800" y2="1020" />
    <line class="grid" x1="80" y1="930" x2="1800" y2="930" />
    <line class="grid" x1="80" y1="840" x2="1800" y2="840" />
    <line class="grid" x1="80" y1="750" x2="1800" y2="750" />
    <line class="grid" x1="80" y1="660" x2="1800" y2="660" />
    <line class="grid" x1="80" y1="570" x2="1800" y2="570" />
    <line class="grid" x1="80" y1="480" x2="1800" y2="480" />
    <line class="grid" x1="80" y1="390" x2="1800" y2="390" />
    <line class="grid" x1="80" y1="300" x2="1800" y2="300" />
    <line class="grid" x1="80" y1="210" x2="1800" y2="210" />
    <line class="grid" x1="80" y1="120" x2="1800" y2="120" />
    <line class="grid" x1="80" y1="1020" x2="80" y2="120" />
    <line class="grid" x1="170" y1="1020" x2="170" y2="120" />
    <line class="grid" x1="260" y1="1020" x2="260" y2="120" />
    <line class="grid" x1="350" y1="1020" x2="350" y2="120" />
    <line class="grid" x1="440" y1="1020" x2="440" y2="120" />
    <line class="grid" x1="530" y1="1020" x2="530" y2="120" />
    <line class="grid" x1="620" y1="1020" x2="620" y2="120" />
    <line class="grid" x1="710" y1="1020" x2="710" y2="120" />
    <line class="grid" x1="800" y1="1020" x2="800" y2="120" />
    <line class="grid" x1="890" y1="1020" x2="890" y2="120" />
    <line class="grid" x1="980" y1="1020" x2="980" y2="120" />
    <line class="grid" x1="1070" y1="1020" x2="1070" y2="120" />
    <line class="grid" x1="1160" y1="1020" x2="1160" y2="120" />
    <line class="grid" x1="1250" y1="1020" x2="1250" y2="120" />
    <line class="grid" x1="1340" y1="1020" x2="1340" y2="120" />
    <line class="grid" x1="1430" y1="1020" x2="1430" y2="120" />
    <line class="grid" x1="1520" y1="1020" x2="1520" y2="120" />
    <line class="grid" x1="1610" y1="1020" x2="1610" y2="120" />
    <line class="grid" x1="1700" y1="1020" x2="1700" y2="120" />
    <line class="grid" x1="1790" y1="1020" x2="1790" y2="120" />
  </g>

  <!-- Floor footprints from current scene geometry -->
  <rect class="room-bedroom" x="1160" y="210" width="630" height="720" />
  <rect class="room" x="134" y="534" width="1026" height="108" />
  <rect class="room" x="462" y="358.5" width="522" height="252" />
  <rect class="room" x="462" y="610.5" width="522" height="252" />
  <rect class="room" x="134" y="417" width="324" height="135" />

  <!-- Walls (A-W) projected to top-down -->
  <g class="wall">
    <rect x="1160" y="201.90000000000003" width="630" height="16.2" />        <!-- A -->
    <rect x="1151.9" y="151.5" width="16.2" height="238.5" />         <!-- B -->
    <rect x="1151.9" y="534" width="16.2" height="432" />         <!-- C -->
    <rect x="1151.9" y="390" width="16.2" height="108" />         <!-- D -->
    <rect x="1781.9" y="210" width="16.2" height="720" />         <!-- E -->

    <rect x="786" y="389.55" width="364.5" height="6.3" />        <!-- F -->
    <rect x="952.5" y="389.55" width="90" height="6.3" />         <!-- H -->
    <rect x="565" y="389.55" width="76.5" height="6.3" />         <!-- I -->
    <rect x="565" y="531.6" width="189" height="6.3" />           <!-- J -->
    <rect x="898" y="531.6" width="252" height="6.3" />           <!-- K -->
    <rect x="129.5" y="498" width="12.6" height="108" />          <!-- L -->

    <rect x="452" y="203.55" width="522" height="6.3" />          <!-- M -->
    <rect x="452" y="203.39999999999998" width="12.6" height="101.25" />      <!-- N -->
    <rect x="452" y="354.15" width="12.6" height="101.25" />       <!-- O -->
    <rect x="452" y="305.25" width="12.6" height="49.5" />        <!-- P -->
    <rect x="452" y="788.5500000000001" width="522" height="6.3" />          <!-- R -->
    <rect x="452" y="453" width="12.6" height="252" />            <!-- S -->
    <rect x="1062.7" y="181.85" width="12.6" height="229.5" />    <!-- Q -->
    <rect x="558.7" y="406.425" width="12.6" height="249.75" />   <!-- T -->

    <rect x="134" y="389.55" width="324" height="6.3" />          <!-- U -->
    <rect x="134" y="254.55" width="324" height="6.3" />          <!-- V -->
    <rect x="129.5" y="255" width="12.6" height="135" />          <!-- W -->
  </g>

  <g class="label-wall">
    <text x="1470" y="225">A</text>
    <text x="1178" y="270.75">B</text>
    <text x="1178" y="740">C</text>
    <text x="1178" y="440">D</text>
    <text x="1762" y="555">E</text>
    <text x="963" y="402">F</text>
    <text x="995" y="402">H</text>
    <text x="600" y="402">I</text>
    <text x="655" y="544">J</text>
    <text x="1010" y="544">K</text>
    <text x="148" y="552">L</text>
    <text x="705" y="216">M</text>
    <text x="471" y="248">N</text>
    <text x="471" y="398">O</text>
    <text x="471" y="326">P</text>
    <text x="705" y="801">R</text>
    <text x="471" y="582">S</text>
    <text x="1082" y="300">Q</text>
    <text x="578" y="539">T</text>
    <text x="282" y="402">U</text>
    <text x="282" y="267">V</text>
    <text x="148" y="320">W</text>
  </g>

  <g class="label-room">
    <text x="1362" y="555">Bedroom</text>
    <text x="545" y="562">Main Hall</text>
    <text x="622" y="430">Kitchen Wing</text>
    <text x="612" y="720">Upper Wing</text>
    <text x="210" y="320">Office</text>
  </g>

  <g class="label-wall">
    <text x="820" y="580">FLOOR-ALL</text>
    <text x="790" y="602">CEILING-ALL</text>
  </g>

  <text class="title" x="80" y="64">Hello Clarice - Current Top-Down Map</text>
  <text class="sub" x="80" y="92">Generated from current room and wall meshes in BedroomScene, HallwayWing, and OfficeArea</text>
  <g class="dir">
    <text x="928" y="136">UP</text>
    <text x="922" y="1006">DOWN</text>
    <text x="116" y="584">LEFT</text>
    <text x="1718" y="584">RIGHT</text>
  </g>
  <text class="legend" x="80" y="1064">Projection: world x/z layout, including hallway z-depth compression (scale z = 0.5)</text>
</svg>
